# xmcd CD database file
#
# Track frame offsets:
#	150
#	19047
#	36187
#	55915
#	79097
#	96090
#	109310
#	124047
#	138427
#	160090
#	184255
#	198020
#	215837
#	231595
#
# Disc length: 3359 seconds
#
# Revision: 2
# Processed by: cddbd v1.5PL3 Copyright (c) Steve Scherf et al.
# Submitted via: CDex 1.51
#
DISCID=c30d1d0e
DTITLE=Stef Bos - De onderstroom [CD 1)
DYEAR=1997
DGENRE=Nederlandstalig
TTITLE0=Vroeg of laat
TTITLE1=Diep in het zuiden
TTITLE2=Serekunde
TTITLE3=De hofnar
TTITLE4=De tovenaar
TTITLE5=De dag zal komen
TTITLE6=De maan is niet eenzaam
TTITLE7=Ik ben een hond
TTITLE8=Johannesburg
TTITLE9=De onderstroom
TTITLE10=Het zegt genoeg
TTITLE11=Volg mij niet
TTITLE12=De laatste ronde
TTITLE13=Didi mala
EXTD=YEAR: 1997
EXTT0=
EXTT1=
EXTT2=
EXTT3=
EXTT4=
EXTT5=
EXTT6=
EXTT7=
EXTT8=
EXTT9=
EXTT10=
EXTT11=
EXTT12=
EXTT13=
PLAYORDER=
